<svg width="35" height="36" viewBox="0 0 35 36" fill="none" xmlns="http://www.w3.org/2000/svg">
<path d="M16.75 19.2988H13.25C12.1454 19.2988 11.25 18.4034 11.25 17.2988V6.79883C11.25 5.69426 12.1454 4.79883 13.25 4.79883H19.5L23.75 9.04883V11.2988" stroke="#DA0175" stroke-width="1.5" stroke-linecap="round" stroke-linejoin="round"/>
<path d="M22.5 14.7988V19.2988" stroke="#DA0175" stroke-width="1.5" stroke-linecap="round" stroke-linejoin="round"/>
<path d="M24.75 17.0488H20.25" stroke="#DA0175" stroke-width="1.5" stroke-linecap="round" stroke-linejoin="round"/>
<path d="M23.5 9.29883H19.25V5.04883" stroke="#DA0175" stroke-width="1.5" stroke-linecap="round" stroke-linejoin="round"/>
<path d="M3.184 32.1208C2.61333 32.1208 2.12533 32.0035 1.72 31.7688C1.31467 31.5342 1.00267 31.2008 0.784 30.7688C0.570667 30.3315 0.464 29.8168 0.464 29.2248C0.464 28.7822 0.525333 28.3848 0.648 28.0328C0.770667 27.6755 0.946667 27.3715 1.176 27.1208C1.41067 26.8648 1.696 26.6702 2.032 26.5368C2.37333 26.4035 2.75733 26.3368 3.184 26.3368C3.49867 26.3368 3.8 26.3795 4.088 26.4648C4.38133 26.5502 4.63467 26.6728 4.848 26.8328C4.93867 26.8915 4.99733 26.9635 5.024 27.0488C5.056 27.1288 5.06133 27.2062 5.04 27.2808C5.024 27.3555 4.98933 27.4195 4.936 27.4728C4.88267 27.5208 4.81333 27.5475 4.728 27.5528C4.648 27.5582 4.56 27.5288 4.464 27.4648C4.288 27.3315 4.09333 27.2328 3.88 27.1688C3.66667 27.1048 3.44267 27.0728 3.208 27.0728C2.80267 27.0728 2.46133 27.1582 2.184 27.3288C1.90667 27.4942 1.696 27.7368 1.552 28.0568C1.408 28.3768 1.336 28.7662 1.336 29.2248C1.336 29.6835 1.408 30.0755 1.552 30.4008C1.696 30.7208 1.90667 30.9662 2.184 31.1368C2.46133 31.3022 2.80267 31.3848 3.208 31.3848C3.44267 31.3848 3.66667 31.3528 3.88 31.2888C4.09867 31.2195 4.304 31.1182 4.496 30.9848C4.592 30.9262 4.67733 30.8995 4.752 30.9048C4.832 30.9102 4.89867 30.9368 4.952 30.9848C5.00533 31.0328 5.04 31.0942 5.056 31.1688C5.07733 31.2382 5.07467 31.3128 5.048 31.3928C5.02667 31.4675 4.976 31.5315 4.896 31.5848C4.67733 31.7608 4.41867 31.8942 4.12 31.9848C3.82133 32.0755 3.50933 32.1208 3.184 32.1208ZM7.389 32.1208C6.99433 32.1208 6.653 32.0382 6.365 31.8728C6.08233 31.7075 5.861 31.4728 5.701 31.1688C5.541 30.8648 5.461 30.5075 5.461 30.0968C5.461 29.7822 5.50633 29.5022 5.597 29.2568C5.68767 29.0115 5.81567 28.8008 5.981 28.6248C6.15167 28.4435 6.35433 28.3075 6.589 28.2168C6.829 28.1208 7.09567 28.0728 7.389 28.0728C7.77833 28.0728 8.11433 28.1555 8.397 28.3208C8.685 28.4862 8.909 28.7208 9.069 29.0248C9.229 29.3235 9.309 29.6808 9.309 30.0968C9.309 30.4062 9.26367 30.6862 9.173 30.9368C9.08233 31.1875 8.95167 31.4008 8.781 31.5768C8.61567 31.7528 8.413 31.8888 8.173 31.9848C7.93833 32.0755 7.677 32.1208 7.389 32.1208ZM7.389 31.4968C7.60767 31.4968 7.79967 31.4435 7.965 31.3368C8.13033 31.2302 8.25833 31.0728 8.349 30.8648C8.445 30.6568 8.493 30.4008 8.493 30.0968C8.493 29.6382 8.39167 29.2915 8.189 29.0568C7.98633 28.8222 7.71967 28.7048 7.389 28.7048C7.165 28.7048 6.97033 28.7582 6.805 28.8648C6.63967 28.9662 6.509 29.1208 6.413 29.3288C6.32233 29.5368 6.277 29.7928 6.277 30.0968C6.277 30.5502 6.37833 30.8968 6.581 31.1368C6.78367 31.3768 7.053 31.4968 7.389 31.4968ZM12.3124 32.1208C11.9711 32.1208 11.6751 32.0355 11.4244 31.8648C11.1738 31.6888 11.0058 31.4568 10.9204 31.1688L11.0084 31.0248V31.6968C11.0084 31.8248 10.9738 31.9262 10.9044 32.0008C10.8351 32.0702 10.7391 32.1048 10.6164 32.1048C10.4884 32.1048 10.3898 32.0702 10.3204 32.0008C10.2511 31.9262 10.2164 31.8248 10.2164 31.6968V26.7608C10.2164 26.6275 10.2511 26.5262 10.3204 26.4568C10.3898 26.3875 10.4884 26.3528 10.6164 26.3528C10.7444 26.3528 10.8431 26.3875 10.9124 26.4568C10.9871 26.5262 11.0244 26.6275 11.0244 26.7608V29.0008H10.9284C11.0138 28.7182 11.1818 28.4942 11.4324 28.3288C11.6831 28.1582 11.9764 28.0728 12.3124 28.0728C12.6644 28.0728 12.9684 28.1555 13.2244 28.3208C13.4804 28.4862 13.6778 28.7182 13.8164 29.0168C13.9604 29.3155 14.0324 29.6755 14.0324 30.0968C14.0324 30.5075 13.9604 30.8675 13.8164 31.1768C13.6778 31.4808 13.4778 31.7155 13.2164 31.8808C12.9604 32.0408 12.6591 32.1208 12.3124 32.1208ZM12.1124 31.4968C12.3364 31.4968 12.5311 31.4435 12.6964 31.3368C12.8618 31.2302 12.9898 31.0728 13.0804 30.8648C13.1711 30.6568 13.2164 30.4008 13.2164 30.0968C13.2164 29.6382 13.1151 29.2915 12.9124 29.0568C12.7151 28.8222 12.4484 28.7048 12.1124 28.7048C11.8938 28.7048 11.6991 28.7582 11.5284 28.8648C11.3631 28.9662 11.2351 29.1208 11.1444 29.3288C11.0538 29.5368 11.0084 29.7928 11.0084 30.0968C11.0084 30.5502 11.1098 30.8968 11.3124 31.1368C11.5151 31.3768 11.7818 31.4968 12.1124 31.4968ZM15.351 32.1048C15.2177 32.1048 15.1163 32.0702 15.047 32.0008C14.9777 31.9262 14.943 31.8248 14.943 31.6968V28.4968C14.943 28.3635 14.9777 28.2622 15.047 28.1928C15.1163 28.1235 15.2123 28.0888 15.335 28.0888C15.463 28.0888 15.559 28.1235 15.623 28.1928C15.6923 28.2622 15.727 28.3635 15.727 28.4968V29.0808H15.647C15.7323 28.7608 15.8897 28.5182 16.119 28.3528C16.3483 28.1875 16.6417 28.0915 16.999 28.0648C17.095 28.0595 17.1697 28.0835 17.223 28.1368C17.2817 28.1902 17.3137 28.2728 17.319 28.3848C17.3297 28.4968 17.3057 28.5875 17.247 28.6568C17.1883 28.7208 17.0977 28.7582 16.975 28.7688L16.823 28.7848C16.4763 28.8168 16.2123 28.9262 16.031 29.1128C15.8497 29.2995 15.759 29.5555 15.759 29.8808V31.6968C15.759 31.8248 15.7243 31.9262 15.655 32.0008C15.591 32.0702 15.4897 32.1048 15.351 32.1048ZM19.1363 32.1208C18.8643 32.1208 18.619 32.0675 18.4003 31.9608C18.187 31.8542 18.019 31.7102 17.8963 31.5288C17.7736 31.3475 17.7123 31.1422 17.7123 30.9128C17.7123 30.6248 17.7843 30.3982 17.9283 30.2328C18.0776 30.0622 18.3203 29.9422 18.6563 29.8728C18.9976 29.7982 19.4563 29.7608 20.0323 29.7608H20.4083V30.2568H20.0403C19.6563 30.2568 19.3523 30.2755 19.1283 30.3128C18.9043 30.3502 18.7443 30.4142 18.6483 30.5048C18.5576 30.5902 18.5123 30.7102 18.5123 30.8648C18.5123 31.0675 18.5816 31.2328 18.7203 31.3608C18.859 31.4835 19.051 31.5448 19.2963 31.5448C19.4936 31.5448 19.667 31.4995 19.8163 31.4088C19.9656 31.3128 20.083 31.1848 20.1683 31.0248C20.259 30.8648 20.3043 30.6808 20.3043 30.4728V29.5528C20.3043 29.2488 20.2403 29.0302 20.1123 28.8968C19.9843 28.7635 19.7736 28.6968 19.4803 28.6968C19.3096 28.6968 19.131 28.7182 18.9443 28.7608C18.763 28.8035 18.5736 28.8755 18.3763 28.9768C18.2856 29.0195 18.2083 29.0328 18.1443 29.0168C18.0803 29.0008 18.0296 28.9662 17.9923 28.9128C17.955 28.8542 17.9336 28.7928 17.9283 28.7288C17.9283 28.6595 17.9443 28.5928 17.9763 28.5288C18.0136 28.4648 18.075 28.4168 18.1603 28.3848C18.395 28.2728 18.627 28.1928 18.8563 28.1448C19.0856 28.0968 19.3016 28.0728 19.5043 28.0728C19.8616 28.0728 20.155 28.1288 20.3843 28.2408C20.619 28.3528 20.7923 28.5235 20.9043 28.7528C21.0163 28.9822 21.0723 29.2782 21.0723 29.6408V31.6968C21.0723 31.8248 21.0403 31.9262 20.9763 32.0008C20.9123 32.0702 20.819 32.1048 20.6963 32.1048C20.579 32.1048 20.4856 32.0702 20.4163 32.0008C20.347 31.9262 20.3123 31.8248 20.3123 31.6968V31.1768H20.3843C20.3416 31.3742 20.2616 31.5448 20.1443 31.6888C20.0323 31.8275 19.891 31.9342 19.7203 32.0088C19.5496 32.0835 19.355 32.1208 19.1363 32.1208ZM22.5852 32.1048C22.4572 32.1048 22.3585 32.0702 22.2892 32.0008C22.2199 31.9262 22.1852 31.8248 22.1852 31.6968V28.4968C22.1852 28.3635 22.2199 28.2622 22.2892 28.1928C22.3585 28.1235 22.4545 28.0888 22.5772 28.0888C22.7052 28.0888 22.8012 28.1235 22.8652 28.1928C22.9345 28.2622 22.9692 28.3635 22.9692 28.4968V29.1208L22.8812 28.9768C22.9985 28.6782 23.1825 28.4542 23.4332 28.3048C23.6839 28.1502 23.9719 28.0728 24.2972 28.0728C24.6065 28.0728 24.8625 28.1315 25.0652 28.2488C25.2732 28.3608 25.4279 28.5342 25.5292 28.7688C25.6305 28.9982 25.6812 29.2888 25.6812 29.6408V31.6968C25.6812 31.8248 25.6465 31.9262 25.5772 32.0008C25.5079 32.0702 25.4092 32.1048 25.2812 32.1048C25.1479 32.1048 25.0465 32.0702 24.9772 32.0008C24.9079 31.9262 24.8732 31.8248 24.8732 31.6968V29.6888C24.8732 29.3528 24.8065 29.1075 24.6732 28.9528C24.5452 28.7982 24.3425 28.7208 24.0652 28.7208C23.7399 28.7208 23.4785 28.8222 23.2812 29.0248C23.0892 29.2275 22.9932 29.4995 22.9932 29.8408V31.6968C22.9932 31.9688 22.8572 32.1048 22.5852 32.1048ZM28.5146 32.1208C28.1146 32.1208 27.7679 32.0382 27.4746 31.8728C27.1866 31.7022 26.9626 31.4648 26.8026 31.1608C26.6426 30.8515 26.5626 30.4888 26.5626 30.0728C26.5626 29.7635 26.6079 29.4862 26.6986 29.2408C26.7892 28.9902 26.9172 28.7795 27.0826 28.6088C27.2532 28.4382 27.4586 28.3075 27.6986 28.2168C27.9439 28.1208 28.2159 28.0728 28.5146 28.0728C28.7012 28.0728 28.8959 28.1022 29.0986 28.1608C29.3066 28.2142 29.4986 28.3048 29.6746 28.4328C29.7439 28.4755 29.7866 28.5288 29.8026 28.5928C29.8239 28.6515 29.8266 28.7128 29.8106 28.7768C29.7999 28.8408 29.7706 28.8968 29.7226 28.9448C29.6799 28.9875 29.6266 29.0142 29.5626 29.0248C29.4986 29.0302 29.4292 29.0115 29.3546 28.9688C29.2266 28.8782 29.0959 28.8142 28.9626 28.7768C28.8292 28.7342 28.7012 28.7128 28.5786 28.7128C28.3866 28.7128 28.2159 28.7448 28.0666 28.8088C27.9226 28.8675 27.7999 28.9555 27.6986 29.0728C27.5972 29.1848 27.5199 29.3262 27.4666 29.4968C27.4186 29.6675 27.3946 29.8622 27.3946 30.0808C27.3946 30.5182 27.4959 30.8622 27.6986 31.1128C27.9066 31.3582 28.1999 31.4808 28.5786 31.4808C28.7012 31.4808 28.8292 31.4622 28.9626 31.4248C29.0959 31.3875 29.2266 31.3235 29.3546 31.2328C29.4292 31.1902 29.4986 31.1742 29.5626 31.1848C29.6266 31.1955 29.6772 31.2248 29.7146 31.2728C29.7572 31.3155 29.7839 31.3688 29.7946 31.4328C29.8106 31.4915 29.8079 31.5528 29.7866 31.6168C29.7652 31.6808 29.7199 31.7342 29.6506 31.7768C29.4799 31.8995 29.2932 31.9875 29.0906 32.0408C28.8932 32.0942 28.7012 32.1208 28.5146 32.1208ZM28.4906 33.6008C28.3946 33.6008 28.2906 33.5928 28.1786 33.5768C28.0719 33.5608 27.9759 33.5368 27.8906 33.5048C27.8212 33.4782 27.7732 33.4382 27.7466 33.3848C27.7252 33.3315 27.7226 33.2782 27.7386 33.2248C27.7546 33.1715 27.7866 33.1288 27.8346 33.0968C27.8879 33.0702 27.9492 33.0728 28.0186 33.1048C28.0826 33.1262 28.1492 33.1422 28.2186 33.1528C28.2879 33.1635 28.3626 33.1688 28.4426 33.1688C28.5812 33.1688 28.6906 33.1448 28.7706 33.0968C28.8559 33.0542 28.8986 32.9902 28.8986 32.9048C28.8986 32.8408 28.8746 32.7902 28.8266 32.7528C28.7786 32.7155 28.7012 32.6968 28.5946 32.6968C28.5572 32.6968 28.5172 32.6968 28.4746 32.6968C28.4319 32.7022 28.3866 32.7128 28.3386 32.7288C28.3012 32.7395 28.2666 32.7448 28.2346 32.7448C28.2079 32.7448 28.1812 32.7342 28.1546 32.7128C28.1332 32.6915 28.1199 32.6648 28.1146 32.6328C28.1092 32.6008 28.1092 32.5608 28.1146 32.5128L28.2106 31.8888H28.6746L28.5706 32.4968L28.3466 32.4248C28.4106 32.4088 28.4746 32.3955 28.5386 32.3848C28.6026 32.3742 28.6612 32.3688 28.7146 32.3688C28.9226 32.3688 29.0906 32.4168 29.2186 32.5128C29.3466 32.6088 29.4106 32.7475 29.4106 32.9288C29.4106 33.1262 29.3252 33.2862 29.1546 33.4088C28.9839 33.5368 28.7626 33.6008 28.4906 33.6008ZM31.7457 32.1208C31.4737 32.1208 31.2284 32.0675 31.0097 31.9608C30.7964 31.8542 30.6284 31.7102 30.5057 31.5288C30.383 31.3475 30.3217 31.1422 30.3217 30.9128C30.3217 30.6248 30.3937 30.3982 30.5377 30.2328C30.687 30.0622 30.9297 29.9422 31.2657 29.8728C31.607 29.7982 32.0657 29.7608 32.6417 29.7608H33.0177V30.2568H32.6497C32.2657 30.2568 31.9617 30.2755 31.7377 30.3128C31.5137 30.3502 31.3537 30.4142 31.2577 30.5048C31.167 30.5902 31.1217 30.7102 31.1217 30.8648C31.1217 31.0675 31.191 31.2328 31.3297 31.3608C31.4684 31.4835 31.6604 31.5448 31.9057 31.5448C32.103 31.5448 32.2764 31.4995 32.4257 31.4088C32.575 31.3128 32.6924 31.1848 32.7777 31.0248C32.8684 30.8648 32.9137 30.6808 32.9137 30.4728V29.5528C32.9137 29.2488 32.8497 29.0302 32.7217 28.8968C32.5937 28.7635 32.383 28.6968 32.0897 28.6968C31.919 28.6968 31.7404 28.7182 31.5537 28.7608C31.3724 28.8035 31.183 28.8755 30.9857 28.9768C30.895 29.0195 30.8177 29.0328 30.7537 29.0168C30.6897 29.0008 30.639 28.9662 30.6017 28.9128C30.5644 28.8542 30.543 28.7928 30.5377 28.7288C30.5377 28.6595 30.5537 28.5928 30.5857 28.5288C30.623 28.4648 30.6844 28.4168 30.7697 28.3848C31.0044 28.2728 31.2364 28.1928 31.4657 28.1448C31.695 28.0968 31.911 28.0728 32.1137 28.0728C32.471 28.0728 32.7644 28.1288 32.9937 28.2408C33.2284 28.3528 33.4017 28.5235 33.5137 28.7528C33.6257 28.9822 33.6817 29.2782 33.6817 29.6408V31.6968C33.6817 31.8248 33.6497 31.9262 33.5857 32.0008C33.5217 32.0702 33.4284 32.1048 33.3057 32.1048C33.1884 32.1048 33.095 32.0702 33.0257 32.0008C32.9564 31.9262 32.9217 31.8248 32.9217 31.6968V31.1768H32.9937C32.951 31.3742 32.871 31.5448 32.7537 31.6888C32.6417 31.8275 32.5004 31.9342 32.3297 32.0088C32.159 32.0835 31.9644 32.1208 31.7457 32.1208Z" fill="#DA0175"/>
</svg>
